<svg width="223" height="223" viewBox="0 0 223 223" fill="none" xmlns="http://www.w3.org/2000/svg">
<circle cx="111.5" cy="111.5" r="111.5" fill="#FFA500"/>
<path d="M43.553 147.988L94.3897 96.8469L128.281 130.941L179.118 79.7998" stroke="black" stroke-width="5" stroke-linecap="round" stroke-linejoin="round"/>
<path d="M43.2824 158C48.9611 158 53.5647 153.396 53.5647 147.718C53.5647 142.039 48.9611 137.435 43.2824 137.435C37.6036 137.435 33 142.039 33 147.718C33 153.396 37.6036 158 43.2824 158Z" fill="#FFA500" stroke="black" stroke-width="5" stroke-linecap="round" stroke-linejoin="round"/>
<path d="M93.6117 110.918C99.2905 110.918 103.894 106.314 103.894 100.635C103.894 94.9566 99.2905 90.353 93.6117 90.353C87.9329 90.353 83.3293 94.9566 83.3293 100.635C83.3293 106.314 87.9329 110.918 93.6117 110.918Z" fill="#FFA500" stroke="black" stroke-width="5" stroke-linecap="round" stroke-linejoin="round"/>
<path d="M128.518 141.765C134.196 141.765 138.8 137.161 138.8 131.482C138.8 125.804 134.196 121.2 128.518 121.2C122.839 121.2 118.235 125.804 118.235 131.482C118.235 137.161 122.839 141.765 128.518 141.765Z" fill="#FFA500" stroke="black" stroke-width="5" stroke-linecap="round" stroke-linejoin="round"/>
<path d="M178.847 86.5647C184.526 86.5647 189.129 81.9611 189.129 76.2824C189.129 70.6036 184.526 66 178.847 66C173.168 66 168.565 70.6036 168.565 76.2824C168.565 81.9611 173.168 86.5647 178.847 86.5647Z" fill="#FFA500" stroke="black" stroke-width="5" stroke-linecap="round" stroke-linejoin="round"/>
</svg>
